<svg width="81" height="85" viewBox="0 0 81 85" fill="none" xmlns="http://www.w3.org/2000/svg">
<circle cx="41" cy="45" r="40" fill="#E7E7E7"/>
<ellipse cx="25" cy="48.5" rx="5" ry="5.5" fill="#030303"/>
<ellipse cx="58" cy="49.5" rx="5" ry="5.5" fill="black"/>
<path d="M38.0001 51.1111C35.0001 49.6111 1 34.5 1 34.5C1 34.5 80.5 31.6111 80.5 34.1111C80.5 36.6111 69.2001 47.6111 67.0001 49.6111C64.8001 51.6111 41.0001 52.6111 38.0001 51.1111Z" fill="#313133" stroke="#9E7171"/>
<path d="M41.4953 0C23.9974 0 1.00003 26.3258 1 33.6625C0.999967 40.9993 81.9907 43.1571 80.9908 33.6625C79.9909 24.168 58.9933 0 41.4953 0Z" fill="#757575"/>
<path d="M32 2C32 2 37 13 37.5 21C38 29 32 39.4837 32 39M54 4C54 4 60.1229 13.5999 60.5 21C60.7995 26.8762 56.4785 38.3423 56.5 39" stroke="black"/>
<path d="M21 62C21 62 28.7048 68.0071 34.5 70C40.2716 71.9848 45.3833 73.265 50 72C54.1473 70.8636 60.5 67 59.5 64" stroke="black"/>
</svg>
