<?xml version="1.0" encoding="UTF-8" standalone="no"?> <!-- Created with Vectornator for iOS (http://vectornator.io/) --><!DOCTYPE svg PUBLIC "-//W3C//DTD SVG 1.1//EN" "http://www.w3.org/Graphics/SVG/1.1/DTD/svg11.dtd">
<svg style="fill-rule:evenodd;clip-rule:evenodd;stroke-linecap:round;stroke-linejoin:round;" xmlns:vectornator="http://vectornator.io" xmlns:xlink="http://www.w3.org/1999/xlink" xmlns="http://www.w3.org/2000/svg" xml:space="preserve" version="1.1" viewBox="0 0 81 85">
<metadata>
<vectornator:setting key="RulersVisible" value="1"/>
<vectornator:setting key="OutlineMode" value="0"/>
<vectornator:setting key="Units" value="Points"/>
<vectornator:setting key="DynamicGuides" value="1"/>
<vectornator:setting key="GuidesVisible" value="1"/>
<vectornator:setting key="IsolateActiveLayer" value="0"/>
<vectornator:setting key="SnapToGuides" value="1"/>
<vectornator:setting key="DimensionsVisible" value="0"/>
<vectornator:setting key="GridSpacing" value="36"/>
</metadata>
<defs/>
<g id="Untitled" vectornator:layerName="Untitled">
<path d="M1+45C1+22.9086+18.9086+5+41+5C63.0914+5+81+22.9086+81+45C81+67.0914+63.0914+85+41+85C18.9086+85+1+67.0914+1+45Z" opacity="1" fill="#e3cdb5"/>
<path d="M20+48.5C20+45.4624+22.2386+43+25+43C27.7614+43+30+45.4624+30+48.5C30+51.5376+27.7614+54+25+54C22.2386+54+20+51.5376+20+48.5Z" opacity="1" fill="#030303"/>
<path d="M53+49.5C53+46.4624+55.2386+44+58+44C60.7614+44+63+46.4624+63+49.5C63+51.6201+61.9094+53.4601+60.3117+54.3781C59.6204+54.7754+58.834+55+58+55C55.2386+55+53+52.5376+53+49.5Z" opacity="1" fill="#000000"/>
<path stroke="#fff8f8" stroke-width="1" d="M38.5001+51.5706C35.5001+50.0706+3.82499+35.7945+3.82499+35.7945C3.82499+35.7945+81+32.0706+81+34.5706C81+37.0706+69.7001+48.0706+67.5001+50.0706C65.3001+52.0706+41.5001+53.0706+38.5001+51.5706Z" fill="#8866e5" stroke-linecap="round" opacity="1" stroke-linejoin="miter"/>
<path stroke="#fff8f8" stroke-width="1" d="M41.4953+1C23.9974+1+1.00005+27.3258+1.00002+34.6625C0.999985+41.9993+81.9907+44.1571+80.9908+34.6625C80.6639+31.5587+78.2+26.8868+74.4199+22.0038C71.5615+18.3114+67.9506+14.4983+63.942+11.1512C60.8602+8.57789+57.5434+6.28+54.1529+4.52405C49.9445+2.34458+45.6226+1+41.4953+1Z" fill="#8866e5" stroke-linecap="round" opacity="1" stroke-linejoin="miter"/>
<path stroke="#ffffff" stroke-width="1" d="M34.773+2.09169C34.773+2.09169+39.773+14.7737+40.273+22.9979C40.773+31.2221+34.77+41.9374+34.77+40.7622M52+3.5C52+3.5+59.1229+14.2104+59.5+21.6105C59.7995+27.4867+55.7579+40.8511+55.7579+40.8511" fill="none" stroke-linecap="round" opacity="1" stroke-linejoin="miter"/>
<path stroke="#110e0e" stroke-width="1" d="M39.0204+72.0019C39.4577+73.3439+40.7696+76.7057+40.7696+76.7057C40.7696+76.7057+41.7397+78.6295+43.333+79.5707C44.9264+80.5119+45.5521+80.4781+47.1429+80.4705C48.7338+80.463+48.96+80.3988+49.6964+79.5406C50.4328+78.6823+50.6249+78.5975+50.6584+77.3891C50.6904+76.2373+50.1937+75.8639+49.9034+74.6408C49.6655+73.6386+48.8218+73.1169+48.8218+73.1169L48.5323+72.8371" fill="#d33535" stroke-linecap="round" opacity="1" stroke-linejoin="round"/>
<path stroke="#000000" stroke-width="1" d="M21+62C21+62+28.7048+68.0071+34.5+70C37.8043+71.1363+40.8923+72.0417+43.795+72.3707C45.9624+72.6164+48.0264+72.5408+50+72C54.1473+70.8636+60.5+67+59.5+64" fill="none" stroke-linecap="butt" opacity="1" stroke-linejoin="miter"/>
</g>
<g id="Слой 1" vectornator:layerName="Слой 1">
<path d="M80.3699+37.9791C80.3699+37.9791+79.3778+38.9906+78.6192+40.2744C77.8778+41.5291+78.0106+42.0228+77.0064+44C76.0022+45.9772+76.7022+46.5772+75.578+49.5C74.4539+52.4228+74.4171+51.9466+73.4648+55.0545C72.5126+58.1624+72.8177+60.4239+72.3151+63.0028C71.8126+65.5817+70.2058+66.4993+70.1798+68.9633C70.1425+72.5045+70.1604+71.228+70.1604+72.0019C70.1604+72.7758+72.2712+69.8705+73.7762+67.8645C75.8664+65.0784+75.396+65.4199+77.133+62C78.7244+58.867+80.4088+52.2928+80.4088+52.2928C80.4088+52.2928+81+47.1796+81+44" opacity="1" fill="#fde2c2"/>
<path stroke="#fff8f8" stroke-opacity="0" stroke-width="3.35" d="M59.6052+14.5241C59.4858+15.0617+65.0923+25.6519+65.0923+25.6519C65.0923+25.6519+68.9874+31.0564+69.1815+33.7072C69.3757+36.3579+69.7603+36.9039+70.1561+37.9791C70.5518+39.0544+75.623+37.8214+75.623+37.8214C75.623+37.8214+77.5047+37.5377+78.6994+37.0747C79.8942+36.6118+79.9308+36.0286+80.0864+35.7396C80.2968+35.3488+81+35.8285+80.1864+33.1831C79.3728+30.5378+78.6696+29.3389+78.6696+29.3389C78.6696+29.3389+75.9657+24.4915+73.1607+21C71.6891+19.1682+66.45+13.2+61.85+10.05C60.0185+8.79584+58.8511+7.81721+57.6653+7.11901C56.2962+6.31284+55.9017+6.05+55.9017+6.05" fill="#ab91f1" stroke-linecap="round" opacity="1" stroke-linejoin="round"/>
</g>
</svg>
